<svg xmlns="http://www.w3.org/2000/svg" viewBox="0 0 64 64" fill="none">
  <defs>
    <linearGradient id="flame" x1="30" y1="4" x2="46" y2="58" gradientUnits="userSpaceOnUse">
      <stop stop-color="#FBBF3C" />
      <stop offset="0.55" stop-color="#F2782A" />
      <stop offset="1" stop-color="#D8322A" />
    </linearGradient>
    <linearGradient id="wave" x1="6" y1="26" x2="34" y2="56" gradientUnits="userSpaceOnUse">
      <stop stop-color="#2FA0E8" />
      <stop offset="1" stop-color="#0B63B4" />
    </linearGradient>
  </defs>
  <path d="M30 4c16 6 25 18 25 31 0 10-5 19-14 25 6-8 8-16 7-24-2-13-9-23-18-32Z" fill="url(#flame)" />
  <path d="M22 12c11 8 17 17 18 27 1 8-2 15-8 20 3-8 3-15 1-22-3-10-8-18-11-25Z" fill="url(#flame)" opacity="0.7" />
  <path d="M9 22c-1 12 4 21 14 25 5 2 11 2 17-1-7 8-16 11-25 8C6 51 1 42 2 32c1-4 3-8 7-10Z" fill="url(#wave)" />
</svg>
